<svg width="216" height="41" viewBox="0 0 216 41" fill="none" xmlns="http://www.w3.org/2000/svg">
<path d="M7.878 34.312C6.28333 34.312 4.93133 34.0433 3.822 33.506C2.71267 32.9513 1.768 32.2407 0.988 31.374L3.588 28.748C4.81867 30.1347 6.33533 30.828 8.138 30.828C9.10867 30.828 9.828 30.6287 10.296 30.23C10.764 29.8313 10.998 29.3027 10.998 28.644C10.998 28.1413 10.8593 27.7253 10.582 27.396C10.3047 27.0493 9.74133 26.8153 8.892 26.694L7.098 26.46C5.174 26.2173 3.76133 25.6367 2.86 24.718C1.976 23.7993 1.534 22.5773 1.534 21.052C1.534 20.2373 1.69 19.492 2.002 18.816C2.314 18.14 2.756 17.5593 3.328 17.074C3.91733 16.5887 4.628 16.216 5.46 15.956C6.30933 15.6787 7.27133 15.54 8.346 15.54C9.71533 15.54 10.92 15.7567 11.96 16.19C13 16.6233 13.8927 17.256 14.638 18.088L12.012 20.74C11.5787 20.2373 11.05 19.83 10.426 19.518C9.81933 19.1887 9.048 19.024 8.112 19.024C7.228 19.024 6.56933 19.18 6.136 19.492C5.70267 19.804 5.486 20.2373 5.486 20.792C5.486 21.416 5.65067 21.8667 5.98 22.144C6.32667 22.4213 6.88133 22.6207 7.644 22.742L9.438 23.028C11.31 23.3227 12.6967 23.9033 13.598 24.77C14.4993 25.6193 14.95 26.8327 14.95 28.41C14.95 29.2767 14.794 30.074 14.482 30.802C14.17 31.53 13.7107 32.154 13.104 32.674C12.5147 33.194 11.778 33.6013 10.894 33.896C10.01 34.1733 9.00467 34.312 7.878 34.312ZM16.7186 20.35H20.4366L21.7626 25.862L22.6986 30.022H22.8026L23.8946 25.862L25.4546 20.35H28.9646L30.5506 25.862L31.6686 30.022H31.7726L32.7086 25.862L34.0346 20.35H37.5966L33.8266 34H29.7966L28.1326 28.228L27.1706 24.692H27.0926L26.1566 28.228L24.4926 34H20.5406L16.7186 20.35ZM47.9954 23.34H46.0714V20.35H47.9954V18.738C47.9954 17.4207 48.3421 16.4327 49.0354 15.774C49.7287 15.098 50.7427 14.76 52.0774 14.76H54.5734V17.75H51.8434V20.35H54.5734V23.34H51.8434V34H47.9954V23.34ZM61.4979 34C60.1633 34 59.1493 33.662 58.4559 32.986C57.7799 32.31 57.4419 31.322 57.4419 30.022V23.34H55.5179V20.35H56.4799C56.9999 20.35 57.3553 20.2287 57.5459 19.986C57.7366 19.726 57.8319 19.362 57.8319 18.894V16.658H61.2899V20.35H63.9939V23.34H61.2899V31.01H63.7859V34H61.4979ZM78.5576 25.42L76.8156 21.78H76.7376V34H73.0196V15.852H77.3356L82.3016 24.432L84.0436 28.072H84.1216V15.852H87.8396V34H83.5236L78.5576 25.42ZM97.32 34.312C96.28 34.312 95.3527 34.1473 94.538 33.818C93.7234 33.4713 93.03 32.9947 92.458 32.388C91.9034 31.764 91.4787 31.01 91.184 30.126C90.9067 29.242 90.768 28.254 90.768 27.162C90.768 26.0873 90.9067 25.1167 91.184 24.25C91.4614 23.366 91.8687 22.612 92.406 21.988C92.9607 21.364 93.6367 20.8873 94.434 20.558C95.2314 20.2113 96.1414 20.038 97.164 20.038C98.2907 20.038 99.2527 20.2287 100.05 20.61C100.865 20.9913 101.523 21.5027 102.026 22.144C102.546 22.7853 102.919 23.5307 103.144 24.38C103.387 25.212 103.508 26.0873 103.508 27.006V28.15H94.746V28.358C94.746 29.2593 94.9887 29.9787 95.474 30.516C95.9594 31.036 96.722 31.296 97.762 31.296C98.5594 31.296 99.2094 31.14 99.712 30.828C100.215 30.4987 100.683 30.1087 101.116 29.658L103.04 32.05C102.433 32.7607 101.636 33.3153 100.648 33.714C99.6774 34.1127 98.568 34.312 97.32 34.312ZM97.242 22.872C96.462 22.872 95.8467 23.132 95.396 23.652C94.9627 24.1547 94.746 24.8307 94.746 25.68V25.888H99.53V25.654C99.53 24.822 99.3394 24.1547 98.958 23.652C98.594 23.132 98.022 22.872 97.242 22.872ZM104.493 34L108.991 27.058L104.545 20.35H108.913L111.461 24.64H111.565L114.035 20.35H118.091L113.567 27.188L118.117 34H113.749L111.123 29.554H111.019L108.497 34H104.493ZM128.428 31.712H128.298C128.177 32.0587 128.012 32.388 127.804 32.7C127.614 33.012 127.362 33.2893 127.05 33.532C126.738 33.7747 126.366 33.9653 125.932 34.104C125.516 34.2427 125.031 34.312 124.476 34.312C123.072 34.312 122.006 33.8527 121.278 32.934C120.568 31.998 120.212 30.6633 120.212 28.93V20.35H124.06V28.592C124.06 29.424 124.208 30.0653 124.502 30.516C124.797 30.9667 125.3 31.192 126.01 31.192C126.305 31.192 126.6 31.1487 126.894 31.062C127.189 30.9753 127.449 30.854 127.674 30.698C127.9 30.5247 128.082 30.3167 128.22 30.074C128.359 29.8313 128.428 29.5453 128.428 29.216V20.35H132.276V34H128.428V31.712ZM140.485 34.312C139.167 34.312 138.058 34.104 137.157 33.688C136.255 33.2547 135.449 32.648 134.739 31.868L137.001 29.58C137.486 30.1173 138.023 30.542 138.613 30.854C139.202 31.166 139.869 31.322 140.615 31.322C141.377 31.322 141.906 31.2093 142.201 30.984C142.495 30.7413 142.643 30.4207 142.643 30.022C142.643 29.3807 142.183 28.9993 141.265 28.878L139.783 28.696C136.715 28.3147 135.181 26.9107 135.181 24.484C135.181 23.8253 135.302 23.2273 135.545 22.69C135.805 22.1353 136.16 21.6673 136.611 21.286C137.079 20.8873 137.633 20.584 138.275 20.376C138.933 20.1507 139.67 20.038 140.485 20.038C141.195 20.038 141.819 20.09 142.357 20.194C142.911 20.2807 143.397 20.4193 143.813 20.61C144.246 20.7833 144.636 21.0087 144.983 21.286C145.347 21.546 145.702 21.8407 146.049 22.17L143.839 24.432C143.405 23.9987 142.911 23.6607 142.357 23.418C141.819 23.158 141.265 23.028 140.693 23.028C140.034 23.028 139.566 23.132 139.289 23.34C139.011 23.548 138.873 23.8253 138.873 24.172C138.873 24.536 138.968 24.822 139.159 25.03C139.367 25.2207 139.748 25.3593 140.303 25.446L141.837 25.654C144.835 26.0527 146.335 27.422 146.335 29.762C146.335 30.4207 146.196 31.0273 145.919 31.582C145.641 32.1367 145.243 32.622 144.723 33.038C144.22 33.4367 143.605 33.7487 142.877 33.974C142.166 34.1993 141.369 34.312 140.485 34.312ZM155.311 15.852H164.125C165.633 15.852 166.803 16.2767 167.635 17.126C168.484 17.9753 168.909 19.102 168.909 20.506C168.909 21.1993 168.813 21.7887 168.623 22.274C168.449 22.7593 168.207 23.158 167.895 23.47C167.6 23.782 167.245 24.016 166.829 24.172C166.43 24.3107 165.997 24.3887 165.529 24.406V24.562C165.962 24.562 166.413 24.64 166.881 24.796C167.366 24.952 167.808 25.2033 168.207 25.55C168.605 25.8793 168.935 26.3127 169.195 26.85C169.472 27.3873 169.611 28.046 169.611 28.826C169.611 29.5367 169.489 30.2127 169.247 30.854C169.021 31.478 168.701 32.024 168.285 32.492C167.869 32.96 167.375 33.3327 166.803 33.61C166.231 33.87 165.607 34 164.931 34H155.311V15.852ZM159.263 30.672H163.813C164.333 30.672 164.74 30.5333 165.035 30.256C165.347 29.9613 165.503 29.554 165.503 29.034V28.15C165.503 27.63 165.347 27.2313 165.035 26.954C164.74 26.6593 164.333 26.512 163.813 26.512H159.263V30.672ZM159.263 23.288H163.189C163.709 23.288 164.116 23.1407 164.411 22.846C164.705 22.5513 164.853 22.144 164.853 21.624V20.844C164.853 20.324 164.705 19.9167 164.411 19.622C164.116 19.3273 163.709 19.18 163.189 19.18H159.263V23.288ZM182.532 34C181.839 34 181.258 33.7833 180.79 33.35C180.34 32.9167 180.054 32.336 179.932 31.608H179.776C179.568 32.492 179.109 33.168 178.398 33.636C177.688 34.0867 176.812 34.312 175.772 34.312C174.403 34.312 173.354 33.948 172.626 33.22C171.898 32.492 171.534 31.53 171.534 30.334C171.534 28.8953 172.054 27.8293 173.094 27.136C174.152 26.4253 175.582 26.07 177.384 26.07H179.542V25.212C179.542 24.5533 179.369 24.0333 179.022 23.652C178.676 23.2533 178.095 23.054 177.28 23.054C176.518 23.054 175.911 23.2187 175.46 23.548C175.01 23.8773 174.637 24.25 174.342 24.666L172.054 22.638C172.609 21.8233 173.302 21.1907 174.134 20.74C174.984 20.272 176.128 20.038 177.566 20.038C179.508 20.038 180.964 20.4627 181.934 21.312C182.905 22.1613 183.39 23.4007 183.39 25.03V31.01H184.664V34H182.532ZM177.202 31.634C177.844 31.634 178.39 31.4953 178.84 31.218C179.308 30.9407 179.542 30.49 179.542 29.866V28.254H177.67C176.162 28.254 175.408 28.7653 175.408 29.788V30.178C175.408 30.6807 175.564 31.0533 175.876 31.296C176.188 31.5213 176.63 31.634 177.202 31.634ZM187.247 34V20.35H191.095V22.664H191.251C191.494 21.9533 191.918 21.338 192.525 20.818C193.132 20.298 193.972 20.038 195.047 20.038C196.451 20.038 197.508 20.506 198.219 21.442C198.947 22.378 199.311 23.7127 199.311 25.446V34H195.463V25.758C195.463 24.874 195.324 24.224 195.047 23.808C194.77 23.3747 194.276 23.158 193.565 23.158C193.253 23.158 192.95 23.2013 192.655 23.288C192.36 23.3573 192.092 23.4787 191.849 23.652C191.624 23.8253 191.442 24.042 191.303 24.302C191.164 24.5447 191.095 24.8307 191.095 25.16V34H187.247ZM202.735 14.76H206.583V26.122H206.739L208.429 23.6L211.159 20.35H215.423L210.873 25.576L215.943 34H211.367L208.299 28.228L206.583 30.152V34H202.735V14.76Z" fill="white"/>
<path d="M41.8039 18.894C41.0239 18.894 40.4519 18.7207 40.0879 18.374C39.7413 18.01 39.5679 17.5507 39.5679 16.996V16.424C39.5679 15.8693 39.7413 15.4187 40.0879 15.072C40.4519 14.708 41.0239 14.526 41.8039 14.526C42.5839 14.526 43.1473 14.708 43.4939 15.072C43.8579 15.4187 44.0399 15.8693 44.0399 16.424V16.996C44.0399 17.5507 43.8579 18.01 43.4939 18.374C43.1473 18.7207 42.5839 18.894 41.8039 18.894ZM39.8799 20.35H43.7279V34H39.8799V20.35Z" fill="#1877F2"/>
<g clip-path="url(#clip0_695_5495)">
<path d="M19.5 8H34.5V17H19.5V8Z" fill="#66757F"/>
<path d="M19 17H35C35.2652 17 35.5196 17.1054 35.7071 17.2929C35.8946 17.4804 36 17.7348 36 18H18C18 17.7348 18.1054 17.4804 18.2929 17.2929C18.4804 17.1054 18.7348 17 19 17Z" fill="#CCD6DD"/>
<path d="M27 11.5C26.6022 11.5 26.2206 11.658 25.9393 11.9393C25.658 12.2206 25.5 12.6022 25.5 13V16H28.5V13C28.5 12.6022 28.342 12.2206 28.0607 11.9393C27.7794 11.658 27.3978 11.5 27 11.5Z" fill="#292F33"/>
<path d="M19.5 10.5H21.5V16H19.5V10.5ZM22.5 10.5H24.5V16H22.5V10.5ZM32.5 10.5H34.5V16H32.5V10.5ZM29.5 10.5H31.5V16H29.5V10.5Z" fill="#CCD6DD"/>
<path d="M19 16H35V17H19V16Z" fill="#AAB8C2"/>
<path d="M36 5.5L27 0L18 5.5H36Z" fill="#66757F"/>
<path d="M27 1.2002L19 6.0002V8.0002H35V6.0002L27 1.2002Z" fill="#CCD6DD"/>
<path d="M19.5 9.5H21.5V10.5H19.5V9.5ZM22.5 9.5H24.5V10.5H22.5V9.5ZM29.5 9.5H31.5V10.5H29.5V9.5ZM32.5 9.5H34.5V10.5H32.5V9.5Z" fill="#8899A6"/>
<path d="M18.5 6H35.5V8.5H18.5V6Z" fill="#CCD6DD"/>
<path d="M36 6C36 6.13261 35.9473 6.25979 35.8536 6.35355C35.7598 6.44732 35.6326 6.5 35.5 6.5H18.5C18.3674 6.5 18.2402 6.44732 18.1464 6.35355C18.0527 6.25979 18 6.13261 18 6V5.5C18 5.36739 18.0527 5.24021 18.1464 5.14645C18.2402 5.05268 18.3674 5 18.5 5H35.5C35.6326 5 35.7598 5.05268 35.8536 5.14645C35.9473 5.24021 36 5.36739 36 5.5V6ZM36 9C36 9.13261 35.9473 9.25979 35.8536 9.35355C35.7598 9.44732 35.6326 9.5 35.5 9.5H18.5C18.3674 9.5 18.2402 9.44732 18.1464 9.35355C18.0527 9.25979 18 9.13261 18 9V8.5C18 8.36739 18.0527 8.24021 18.1464 8.14645C18.2402 8.05268 18.3674 8 18.5 8H35.5C35.6326 8 35.7598 8.05268 35.8536 8.14645C35.9473 8.24021 36 8.36739 36 8.5V9Z" fill="#AAB8C2"/>
<path d="M24.5 16H29.5V17H24.5V16Z" fill="#E1E8ED"/>
<path d="M23.5 17H30.5V18H23.5V17Z" fill="#F5F8FA"/>
</g>
<defs>
<clipPath id="clip0_695_5495">
<rect width="18" height="18" fill="white" transform="translate(18)"/>
</clipPath>
</defs>
</svg>
