<svg width="182" height="45" viewBox="0 0 182 45" fill="none" xmlns="http://www.w3.org/2000/svg">
<path d="M9.696 36.384C7.73333 36.384 6.06933 36.0533 4.704 35.392C3.33867 34.7093 2.176 33.8347 1.216 32.768L4.416 29.536C5.93067 31.2427 7.79733 32.096 10.016 32.096C11.2107 32.096 12.096 31.8507 12.672 31.36C13.248 30.8693 13.536 30.2187 13.536 29.408C13.536 28.7893 13.3653 28.2773 13.024 27.872C12.6827 27.4453 11.9893 27.1573 10.944 27.008L8.736 26.72C6.368 26.4213 4.62933 25.7067 3.52 24.576C2.432 23.4453 1.888 21.9413 1.888 20.064C1.888 19.0613 2.08 18.144 2.464 17.312C2.848 16.48 3.392 15.7653 4.096 15.168C4.82133 14.5707 5.696 14.112 6.72 13.792C7.76533 13.4507 8.94933 13.28 10.272 13.28C11.9573 13.28 13.44 13.5467 14.72 14.08C16 14.6133 17.0987 15.392 18.016 16.416L14.784 19.68C14.2507 19.0613 13.6 18.56 12.832 18.176C12.0853 17.7707 11.136 17.568 9.984 17.568C8.896 17.568 8.08533 17.76 7.552 18.144C7.01867 18.528 6.752 19.0613 6.752 19.744C6.752 20.512 6.95467 21.0667 7.36 21.408C7.78667 21.7493 8.46933 21.9947 9.408 22.144L11.616 22.496C13.92 22.8587 15.6267 23.5733 16.736 24.64C17.8453 25.6853 18.4 27.1787 18.4 29.12C18.4 30.1867 18.208 31.168 17.824 32.064C17.44 32.96 16.8747 33.728 16.128 34.368C15.4027 35.008 14.496 35.5093 13.408 35.872C12.32 36.2133 11.0827 36.384 9.696 36.384ZM20.5768 19.2H25.1528L26.7848 25.984L27.9368 31.104H28.0648L29.4088 25.984L31.3288 19.2H35.6488L37.6007 25.984L38.9768 31.104H39.1048L40.2568 25.984L41.8888 19.2H46.2728L41.6328 36H36.6728L34.6248 28.896L33.4408 24.544H33.3448L32.1928 28.896L30.1448 36H25.2808L20.5768 19.2ZM59.0713 22.88H56.7033V19.2H59.0713V17.216C59.0713 15.5947 59.4979 14.3787 60.3513 13.568C61.2046 12.736 62.4526 12.32 64.0953 12.32H67.1673V16H63.8073V19.2H67.1673V22.88H63.8073V36H59.0713V22.88ZM75.6898 36C74.0471 36 72.7991 35.584 71.9458 34.752C71.1138 33.92 70.6978 32.704 70.6978 31.104V22.88H68.3298V19.2H69.5138C70.1538 19.2 70.5911 19.0507 70.8258 18.752C71.0604 18.432 71.1778 17.984 71.1778 17.408V14.656H75.4338V19.2H78.7618V22.88H75.4338V32.32H78.5058V36H75.6898ZM96.6863 25.44L94.5423 20.96H94.4463V36H89.8703V13.664H95.1823L101.294 24.224L103.438 28.704H103.534V13.664H108.11V36H102.798L96.6863 25.44ZM119.779 36.384C118.499 36.384 117.357 36.1813 116.355 35.776C115.352 35.3493 114.499 34.7627 113.795 34.016C113.112 33.248 112.589 32.32 112.227 31.232C111.885 30.144 111.715 28.928 111.715 27.584C111.715 26.2613 111.885 25.0667 112.227 24C112.568 22.912 113.069 21.984 113.731 21.216C114.413 20.448 115.245 19.8613 116.227 19.456C117.208 19.0293 118.328 18.816 119.587 18.816C120.973 18.816 122.157 19.0507 123.139 19.52C124.141 19.9893 124.952 20.6187 125.571 21.408C126.211 22.1973 126.669 23.1147 126.947 24.16C127.245 25.184 127.395 26.2613 127.395 27.392V28.8H116.611V29.056C116.611 30.1653 116.909 31.0507 117.507 31.712C118.104 32.352 119.043 32.672 120.323 32.672C121.304 32.672 122.104 32.48 122.723 32.096C123.341 31.6907 123.917 31.2107 124.451 30.656L126.819 33.6C126.072 34.4747 125.091 35.1573 123.875 35.648C122.68 36.1387 121.315 36.384 119.779 36.384ZM119.683 22.304C118.723 22.304 117.965 22.624 117.411 23.264C116.877 23.8827 116.611 24.7147 116.611 25.76V26.016H122.499V25.728C122.499 24.704 122.264 23.8827 121.795 23.264C121.347 22.624 120.643 22.304 119.683 22.304ZM128.607 36L134.143 27.456L128.671 19.2H134.047L137.183 24.48H137.311L140.351 19.2H145.343L139.775 27.616L145.375 36H139.999L136.767 30.528H136.639L133.535 36H128.607ZM158.066 33.184H157.906C157.756 33.6107 157.554 34.016 157.298 34.4C157.063 34.784 156.754 35.1253 156.37 35.424C155.986 35.7227 155.527 35.9573 154.994 36.128C154.482 36.2987 153.884 36.384 153.202 36.384C151.474 36.384 150.162 35.8187 149.266 34.688C148.391 33.536 147.954 31.8933 147.954 29.76V19.2H152.69V29.344C152.69 30.368 152.871 31.1573 153.234 31.712C153.596 32.2667 154.215 32.544 155.09 32.544C155.452 32.544 155.815 32.4907 156.178 32.384C156.54 32.2773 156.86 32.128 157.138 31.936C157.415 31.7227 157.639 31.4667 157.81 31.168C157.98 30.8693 158.066 30.5173 158.066 30.112V19.2H162.802V36H158.066V33.184ZM172.904 36.384C171.283 36.384 169.917 36.128 168.808 35.616C167.699 35.0827 166.707 34.336 165.832 33.376L168.616 30.56C169.213 31.2213 169.875 31.744 170.6 32.128C171.325 32.512 172.147 32.704 173.064 32.704C174.003 32.704 174.653 32.5653 175.016 32.288C175.379 31.9893 175.56 31.5947 175.56 31.104C175.56 30.3147 174.995 29.8453 173.864 29.696L172.04 29.472C168.264 29.0027 166.376 27.2747 166.376 24.288C166.376 23.4773 166.525 22.7413 166.824 22.08C167.144 21.3973 167.581 20.8213 168.136 20.352C168.712 19.8613 169.395 19.488 170.184 19.232C170.995 18.9547 171.901 18.816 172.904 18.816C173.779 18.816 174.547 18.88 175.208 19.008C175.891 19.1147 176.488 19.2853 177 19.52C177.533 19.7333 178.013 20.0107 178.44 20.352C178.888 20.672 179.325 21.0347 179.752 21.44L177.032 24.224C176.499 23.6907 175.891 23.2747 175.208 22.976C174.547 22.656 173.864 22.496 173.16 22.496C172.349 22.496 171.773 22.624 171.432 22.88C171.091 23.136 170.92 23.4773 170.92 23.904C170.92 24.352 171.037 24.704 171.272 24.96C171.528 25.1947 171.997 25.3653 172.68 25.472L174.568 25.728C178.259 26.2187 180.104 27.904 180.104 30.784C180.104 31.5947 179.933 32.3413 179.592 33.024C179.251 33.7067 178.76 34.304 178.12 34.816C177.501 35.3067 176.744 35.6907 175.848 35.968C174.973 36.2453 173.992 36.384 172.904 36.384Z" fill="#333333"/>
<path d="M51.451 17.408C50.491 17.408 49.787 17.1947 49.339 16.768C48.9123 16.32 48.699 15.7547 48.699 15.072V14.368C48.699 13.6853 48.9123 13.1307 49.339 12.704C49.787 12.256 50.491 12.032 51.451 12.032C52.411 12.032 53.1043 12.256 53.531 12.704C53.979 13.1307 54.203 13.6853 54.203 14.368V15.072C54.203 15.7547 53.979 16.32 53.531 16.768C53.1043 17.1947 52.411 17.408 51.451 17.408ZM49.083 19.2H53.819V36H49.083V19.2Z" fill="#1877F2"/>
<g clip-path="url(#clip0_695_5495)">
<path d="M26.5 8H41.5V17H26.5V8Z" fill="#66757F"/>
<path d="M26 17H42C42.2652 17 42.5196 17.1054 42.7071 17.2929C42.8946 17.4804 43 17.7348 43 18H25C25 17.7348 25.1054 17.4804 25.2929 17.2929C25.4804 17.1054 25.7348 17 26 17Z" fill="#CCD6DD"/>
<path d="M34 11.5C33.6022 11.5 33.2206 11.658 32.9393 11.9393C32.658 12.2206 32.5 12.6022 32.5 13V16H35.5V13C35.5 12.6022 35.342 12.2206 35.0607 11.9393C34.7794 11.658 34.3978 11.5 34 11.5Z" fill="#292F33"/>
<path d="M26.5 10.5H28.5V16H26.5V10.5ZM29.5 10.5H31.5V16H29.5V10.5ZM39.5 10.5H41.5V16H39.5V10.5ZM36.5 10.5H38.5V16H36.5V10.5Z" fill="#CCD6DD"/>
<path d="M26 16H42V17H26V16Z" fill="#AAB8C2"/>
<path d="M43 5.5L34 0L25 5.5H43Z" fill="#66757F"/>
<path d="M34 1.2002L26 6.0002V8.0002H42V6.0002L34 1.2002Z" fill="#CCD6DD"/>
<path d="M26.5 9.5H28.5V10.5H26.5V9.5ZM29.5 9.5H31.5V10.5H29.5V9.5ZM36.5 9.5H38.5V10.5H36.5V9.5ZM39.5 9.5H41.5V10.5H39.5V9.5Z" fill="#8899A6"/>
<path d="M25.5 6H42.5V8.5H25.5V6Z" fill="#CCD6DD"/>
<path d="M43 6C43 6.13261 42.9473 6.25979 42.8536 6.35355C42.7598 6.44732 42.6326 6.5 42.5 6.5H25.5C25.3674 6.5 25.2402 6.44732 25.1464 6.35355C25.0527 6.25979 25 6.13261 25 6V5.5C25 5.36739 25.0527 5.24021 25.1464 5.14645C25.2402 5.05268 25.3674 5 25.5 5H42.5C42.6326 5 42.7598 5.05268 42.8536 5.14645C42.9473 5.24021 43 5.36739 43 5.5V6ZM43 9C43 9.13261 42.9473 9.25979 42.8536 9.35355C42.7598 9.44732 42.6326 9.5 42.5 9.5H25.5C25.3674 9.5 25.2402 9.44732 25.1464 9.35355C25.0527 9.25979 25 9.13261 25 9V8.5C25 8.36739 25.0527 8.24021 25.1464 8.14645C25.2402 8.05268 25.3674 8 25.5 8H42.5C42.6326 8 42.7598 8.05268 42.8536 8.14645C42.9473 8.24021 43 8.36739 43 8.5V9Z" fill="#AAB8C2"/>
<path d="M31.5 16H36.5V17H31.5V16Z" fill="#E1E8ED"/>
<path d="M30.5 17H37.5V18H30.5V17Z" fill="#F5F8FA"/>
</g>
<defs>
<clipPath id="clip0_695_5495">
<rect width="18" height="18" fill="white" transform="translate(25)"/>
</clipPath>
</defs>
</svg>
